<svg xmlns="http://www.w3.org/2000/svg" xmlns:xlink="http://www.w3.org/1999/xlink" width="550" zoomAndPan="magnify" viewBox="0 0 412.5 112.499997" height="150" preserveAspectRatio="xMidYMid meet" version="1.0"><defs><g/></defs><g fill="#222222" fill-opacity="1"><g transform="translate(0.663723, 81.812851)"><g><path d="M 41.484375 0.90625 C 38.335938 0.90625 35.515625 0.21875 33.015625 -1.15625 C 30.523438 -2.53125 28.554688 -4.441406 27.109375 -6.890625 C 25.660156 -9.335938 24.9375 -12.109375 24.9375 -15.203125 L 24.9375 -38.125 C 24.9375 -38.914062 24.734375 -39.632812 24.328125 -40.28125 C 23.929688 -40.9375 23.410156 -41.460938 22.765625 -41.859375 C 22.117188 -42.265625 21.394531 -42.46875 20.59375 -42.46875 C 19.789062 -42.46875 19.066406 -42.265625 18.421875 -41.859375 C 17.773438 -41.460938 17.265625 -40.9375 16.890625 -40.28125 C 16.515625 -39.632812 16.328125 -38.914062 16.328125 -38.125 L 16.328125 0 L 4.046875 0 L 4.046875 -37.21875 C 4.046875 -40.363281 4.753906 -43.132812 6.171875 -45.53125 C 7.597656 -47.925781 9.570312 -49.820312 12.09375 -51.21875 C 14.613281 -52.625 17.445312 -53.328125 20.59375 -53.328125 C 23.789062 -53.328125 26.632812 -52.625 29.125 -51.21875 C 31.625 -49.820312 33.597656 -47.925781 35.046875 -45.53125 C 36.492188 -43.132812 37.21875 -40.363281 37.21875 -37.21875 L 37.21875 -14.296875 C 37.21875 -13.503906 37.414062 -12.769531 37.8125 -12.09375 C 38.21875 -11.414062 38.734375 -10.890625 39.359375 -10.515625 C 39.984375 -10.140625 40.671875 -9.953125 41.421875 -9.953125 C 42.210938 -9.953125 42.945312 -10.140625 43.625 -10.515625 C 44.300781 -10.890625 44.835938 -11.414062 45.234375 -12.09375 C 45.628906 -12.769531 45.828125 -13.503906 45.828125 -14.296875 L 45.828125 -52.421875 L 58.046875 -52.421875 L 58.046875 -15.203125 C 58.046875 -12.109375 57.320312 -9.335938 55.875 -6.890625 C 54.425781 -4.441406 52.453125 -2.53125 49.953125 -1.15625 C 47.453125 0.21875 44.628906 0.90625 41.484375 0.90625 Z M 41.484375 0.90625 "/></g></g></g><g fill="#222222" fill-opacity="1"><g transform="translate(56.680867, 81.812851)"><g><path d="M 18.578125 0 C 15.628906 0 12.957031 -0.6875 10.5625 -2.0625 C 8.164062 -3.4375 6.253906 -5.28125 4.828125 -7.59375 C 3.410156 -9.914062 2.703125 -12.550781 2.703125 -15.5 C 2.703125 -17.695312 3.1875 -19.753906 4.15625 -21.671875 C 5.125 -23.597656 6.4375 -25.257812 8.09375 -26.65625 C 6.488281 -28.007812 5.222656 -29.609375 4.296875 -31.453125 C 3.378906 -33.296875 2.921875 -35.242188 2.921875 -37.296875 C 2.921875 -40.191406 3.617188 -42.773438 5.015625 -45.046875 C 6.410156 -47.316406 8.28125 -49.113281 10.625 -50.4375 C 12.976562 -51.757812 15.578125 -52.421875 18.421875 -52.421875 L 40.515625 -52.421875 L 40.515625 -41.9375 L 20.375 -41.9375 C 19.425781 -41.9375 18.550781 -41.710938 17.75 -41.265625 C 16.945312 -40.816406 16.304688 -40.21875 15.828125 -39.46875 C 15.359375 -38.71875 15.125 -37.84375 15.125 -36.84375 C 15.125 -35.894531 15.359375 -35.035156 15.828125 -34.265625 C 16.304688 -33.492188 16.945312 -32.894531 17.75 -32.46875 C 18.550781 -32.039062 19.425781 -31.828125 20.375 -31.828125 L 37.96875 -31.828125 L 37.96875 -21.34375 L 20.75 -21.34375 C 19.695312 -21.34375 18.742188 -21.09375 17.890625 -20.59375 C 17.046875 -20.09375 16.375 -19.441406 15.875 -18.640625 C 15.375 -17.847656 15.125 -16.925781 15.125 -15.875 C 15.125 -14.875 15.375 -13.960938 15.875 -13.140625 C 16.375 -12.316406 17.046875 -11.679688 17.890625 -11.234375 C 18.742188 -10.785156 19.695312 -10.5625 20.75 -10.5625 L 40.515625 -10.5625 L 40.515625 0 Z M 18.578125 0 "/></g></g></g><g fill="#222222" fill-opacity="1"><g transform="translate(93.975536, 81.812851)"><g><path d="M 3.21875 0 L 16.921875 -22.546875 C 14.472656 -23.546875 12.375 -24.878906 10.625 -26.546875 C 8.882812 -28.222656 7.523438 -30.234375 6.546875 -32.578125 C 5.578125 -34.921875 5.09375 -37.566406 5.09375 -40.515625 L 5.09375 -52.421875 L 17.671875 -52.421875 L 17.671875 -39.765625 C 17.671875 -38.460938 17.929688 -37.25 18.453125 -36.125 C 18.984375 -35.007812 19.734375 -34.085938 20.703125 -33.359375 C 21.679688 -32.640625 22.816406 -32.179688 24.109375 -31.984375 L 36.25 -52.421875 L 50.25 -52.421875 L 36.546875 -30.328125 C 39.296875 -29.523438 41.691406 -28.273438 43.734375 -26.578125 C 45.785156 -24.890625 47.359375 -22.804688 48.453125 -20.328125 C 49.554688 -17.859375 50.109375 -15.078125 50.109375 -11.984375 L 50.109375 0 L 37.515625 0 L 37.515625 -12.578125 C 37.515625 -14.828125 36.816406 -16.738281 35.421875 -18.3125 C 34.023438 -19.882812 32.078125 -20.695312 29.578125 -20.75 L 17.21875 0 Z M 3.21875 0 "/></g></g></g><g fill="#222222" fill-opacity="1"><g transform="translate(140.631443, 81.812851)"><g><path d="M 0 0 L 17 -46.359375 C 17.84375 -48.648438 19.238281 -50.382812 21.1875 -51.5625 C 23.132812 -52.738281 25.332031 -53.328125 27.78125 -53.328125 C 30.226562 -53.328125 32.425781 -52.765625 34.375 -51.640625 C 36.320312 -50.515625 37.71875 -48.78125 38.5625 -46.4375 L 55.640625 0 L 42.09375 0 L 38.796875 -10.109375 L 16.546875 -10.109375 L 13.109375 0 Z M 19.765625 -20.515625 L 35.578125 -20.515625 L 28.90625 -41.421875 C 28.8125 -41.710938 28.675781 -41.921875 28.5 -42.046875 C 28.320312 -42.171875 28.109375 -42.234375 27.859375 -42.234375 C 27.609375 -42.234375 27.394531 -42.15625 27.21875 -42 C 27.039062 -41.851562 26.929688 -41.660156 26.890625 -41.421875 Z M 19.765625 -20.515625 "/></g></g></g><g fill="#222222" fill-opacity="1"><g transform="translate(190.133161, 81.812851)"><g><path d="M 41.484375 0.90625 C 38.335938 0.90625 35.515625 0.21875 33.015625 -1.15625 C 30.523438 -2.53125 28.554688 -4.441406 27.109375 -6.890625 C 25.660156 -9.335938 24.9375 -12.109375 24.9375 -15.203125 L 24.9375 -38.125 C 24.9375 -38.914062 24.734375 -39.632812 24.328125 -40.28125 C 23.929688 -40.9375 23.410156 -41.460938 22.765625 -41.859375 C 22.117188 -42.265625 21.394531 -42.46875 20.59375 -42.46875 C 19.789062 -42.46875 19.066406 -42.265625 18.421875 -41.859375 C 17.773438 -41.460938 17.265625 -40.9375 16.890625 -40.28125 C 16.515625 -39.632812 16.328125 -38.914062 16.328125 -38.125 L 16.328125 0 L 4.046875 0 L 4.046875 -37.21875 C 4.046875 -40.363281 4.753906 -43.132812 6.171875 -45.53125 C 7.597656 -47.925781 9.570312 -49.820312 12.09375 -51.21875 C 14.613281 -52.625 17.445312 -53.328125 20.59375 -53.328125 C 23.789062 -53.328125 26.632812 -52.625 29.125 -51.21875 C 31.625 -49.820312 33.597656 -47.925781 35.046875 -45.53125 C 36.492188 -43.132812 37.21875 -40.363281 37.21875 -37.21875 L 37.21875 -14.296875 C 37.21875 -13.503906 37.414062 -12.769531 37.8125 -12.09375 C 38.21875 -11.414062 38.734375 -10.890625 39.359375 -10.515625 C 39.984375 -10.140625 40.671875 -9.953125 41.421875 -9.953125 C 42.210938 -9.953125 42.945312 -10.140625 43.625 -10.515625 C 44.300781 -10.890625 44.835938 -11.414062 45.234375 -12.09375 C 45.628906 -12.769531 45.828125 -13.503906 45.828125 -14.296875 L 45.828125 -52.421875 L 58.046875 -52.421875 L 58.046875 -15.203125 C 58.046875 -12.109375 57.320312 -9.335938 55.875 -6.890625 C 54.425781 -4.441406 52.453125 -2.53125 49.953125 -1.15625 C 47.453125 0.21875 44.628906 0.90625 41.484375 0.90625 Z M 41.484375 0.90625 "/></g></g></g><g fill="#222222" fill-opacity="1"><g transform="translate(246.150305, 81.812851)"><g><path d="M 0 0 L 17 -46.359375 C 17.84375 -48.648438 19.238281 -50.382812 21.1875 -51.5625 C 23.132812 -52.738281 25.332031 -53.328125 27.78125 -53.328125 C 30.226562 -53.328125 32.425781 -52.765625 34.375 -51.640625 C 36.320312 -50.515625 37.71875 -48.78125 38.5625 -46.4375 L 55.640625 0 L 42.09375 0 L 38.796875 -10.109375 L 16.546875 -10.109375 L 13.109375 0 Z M 19.765625 -20.515625 L 35.578125 -20.515625 L 28.90625 -41.421875 C 28.8125 -41.710938 28.675781 -41.921875 28.5 -42.046875 C 28.320312 -42.171875 28.109375 -42.234375 27.859375 -42.234375 C 27.609375 -42.234375 27.394531 -42.15625 27.21875 -42 C 27.039062 -41.851562 26.929688 -41.660156 26.890625 -41.421875 Z M 19.765625 -20.515625 "/></g></g></g><g fill="#222222" fill-opacity="1"><g transform="translate(295.652035, 81.812851)"><g/></g></g><g fill="#222222" fill-opacity="1"><g transform="translate(309.3564, 81.812851)"><g><path d="M 4.5625 0 L 4.5625 -52.421875 L 23.8125 -52.421875 C 29.351562 -52.421875 34.15625 -51.296875 38.21875 -49.046875 C 42.289062 -46.804688 45.460938 -43.710938 47.734375 -39.765625 C 50.015625 -35.816406 51.15625 -31.300781 51.15625 -26.21875 C 51.15625 -21.125 50.015625 -16.601562 47.734375 -12.65625 C 45.460938 -8.707031 42.289062 -5.609375 38.21875 -3.359375 C 34.15625 -1.117188 29.351562 0 23.8125 0 Z M 17.15625 -10.484375 L 23.515625 -10.484375 C 26.410156 -10.484375 28.992188 -11.117188 31.265625 -12.390625 C 33.535156 -13.660156 35.316406 -15.46875 36.609375 -17.8125 C 37.910156 -20.164062 38.5625 -22.96875 38.5625 -26.21875 C 38.5625 -29.457031 37.910156 -32.25 36.609375 -34.59375 C 35.316406 -36.945312 33.535156 -38.757812 31.265625 -40.03125 C 28.992188 -41.300781 26.410156 -41.9375 23.515625 -41.9375 L 17.15625 -41.9375 Z M 17.15625 -10.484375 "/></g></g></g><g fill="#222222" fill-opacity="1"><g transform="translate(356.46163, 81.812851)"><g><path d="M 4.5625 0 L 4.5625 -52.421875 L 34.96875 -52.421875 C 37.570312 -52.421875 39.929688 -51.847656 42.046875 -50.703125 C 44.171875 -49.554688 45.867188 -47.957031 47.140625 -45.90625 C 48.410156 -43.863281 49.046875 -41.441406 49.046875 -38.640625 C 49.046875 -36.992188 48.734375 -35.421875 48.109375 -33.921875 C 47.492188 -32.421875 46.625 -31.097656 45.5 -29.953125 C 44.375 -28.804688 43.085938 -27.882812 41.640625 -27.1875 C 43.335938 -26.488281 44.847656 -25.488281 46.171875 -24.1875 C 47.492188 -22.894531 48.539062 -21.398438 49.3125 -19.703125 C 50.082031 -18.003906 50.46875 -16.179688 50.46875 -14.234375 C 50.46875 -11.378906 49.804688 -8.878906 48.484375 -6.734375 C 47.160156 -4.585938 45.398438 -2.925781 43.203125 -1.75 C 41.015625 -0.582031 38.570312 0 35.875 0 Z M 17.15625 -10.40625 L 32.578125 -10.40625 C 33.628906 -10.40625 34.566406 -10.65625 35.390625 -11.15625 C 36.210938 -11.65625 36.875 -12.328125 37.375 -13.171875 C 37.875 -14.023438 38.125 -14.953125 38.125 -15.953125 C 38.125 -17.003906 37.875 -17.941406 37.375 -18.765625 C 36.875 -19.585938 36.210938 -20.25 35.390625 -20.75 C 34.566406 -21.25 33.628906 -21.5 32.578125 -21.5 L 17.15625 -21.5 Z M 17.15625 -31.53125 L 31.296875 -31.53125 C 32.296875 -31.53125 33.179688 -31.765625 33.953125 -32.234375 C 34.734375 -32.710938 35.347656 -33.335938 35.796875 -34.109375 C 36.242188 -34.890625 36.46875 -35.753906 36.46875 -36.703125 C 36.46875 -37.691406 36.242188 -38.570312 35.796875 -39.34375 C 35.347656 -40.125 34.734375 -40.75 33.953125 -41.21875 C 33.179688 -41.695312 32.296875 -41.9375 31.296875 -41.9375 L 17.15625 -41.9375 Z M 17.15625 -31.53125 "/></g></g></g></svg>