<svg xmlns="http://www.w3.org/2000/svg" xmlns:xlink="http://www.w3.org/1999/xlink" width="500" zoomAndPan="magnify" viewBox="0 0 375 112.499997" height="150" preserveAspectRatio="xMidYMid meet" version="1.0"><defs><g/><clipPath id="4f04ae9a8e"><rect x="0" width="232" y="0" height="91"/></clipPath><clipPath id="21d490850d"><rect x="0" width="152" y="0" height="50"/></clipPath></defs><g transform="matrix(1, 0, 0, 1, 24, 0)"><g clip-path="url(#4f04ae9a8e)"><g fill="#ffffff" fill-opacity="1"><g transform="translate(0.218782, 64.755469)"><g><path d="M 31.71875 0.6875 C 29.3125 0.6875 27.15625 0.160156 25.25 -0.890625 C 23.34375 -1.941406 21.832031 -3.398438 20.71875 -5.265625 C 19.613281 -7.140625 19.0625 -9.257812 19.0625 -11.625 L 19.0625 -29.140625 C 19.0625 -29.753906 18.90625 -30.304688 18.59375 -30.796875 C 18.289062 -31.296875 17.890625 -31.695312 17.390625 -32 C 16.898438 -32.300781 16.351562 -32.453125 15.75 -32.453125 C 15.132812 -32.453125 14.578125 -32.300781 14.078125 -32 C 13.585938 -31.695312 13.195312 -31.296875 12.90625 -30.796875 C 12.625 -30.304688 12.484375 -29.753906 12.484375 -29.140625 L 12.484375 0 L 3.09375 0 L 3.09375 -28.453125 C 3.09375 -30.859375 3.632812 -32.976562 4.71875 -34.8125 C 5.8125 -36.644531 7.320312 -38.09375 9.25 -39.15625 C 11.175781 -40.226562 13.34375 -40.765625 15.75 -40.765625 C 18.1875 -40.765625 20.359375 -40.226562 22.265625 -39.15625 C 24.171875 -38.09375 25.675781 -36.644531 26.78125 -34.8125 C 27.894531 -32.976562 28.453125 -30.859375 28.453125 -28.453125 L 28.453125 -10.9375 C 28.453125 -10.320312 28.601562 -9.753906 28.90625 -9.234375 C 29.21875 -8.722656 29.609375 -8.320312 30.078125 -8.03125 C 30.554688 -7.75 31.082031 -7.609375 31.65625 -7.609375 C 32.269531 -7.609375 32.832031 -7.75 33.34375 -8.03125 C 33.863281 -8.320312 34.273438 -8.722656 34.578125 -9.234375 C 34.878906 -9.753906 35.03125 -10.320312 35.03125 -10.9375 L 35.03125 -40.078125 L 44.375 -40.078125 L 44.375 -11.625 C 44.375 -9.257812 43.816406 -7.140625 42.703125 -5.265625 C 41.597656 -3.398438 40.09375 -1.941406 38.1875 -0.890625 C 36.28125 0.160156 34.125 0.6875 31.71875 0.6875 Z M 31.71875 0.6875 "/></g></g></g><g fill="#ffffff" fill-opacity="1"><g transform="translate(43.036773, 64.755469)"><g><path d="M 14.203125 0 C 11.941406 0 9.894531 -0.523438 8.0625 -1.578125 C 6.238281 -2.628906 4.78125 -4.039062 3.6875 -5.8125 C 2.601562 -7.582031 2.0625 -9.59375 2.0625 -11.84375 C 2.0625 -13.53125 2.429688 -15.109375 3.171875 -16.578125 C 3.921875 -18.046875 4.925781 -19.3125 6.1875 -20.375 C 4.957031 -21.40625 3.988281 -22.625 3.28125 -24.03125 C 2.582031 -25.445312 2.234375 -26.941406 2.234375 -28.515625 C 2.234375 -30.722656 2.765625 -32.695312 3.828125 -34.4375 C 4.898438 -36.175781 6.332031 -37.550781 8.125 -38.5625 C 9.914062 -39.570312 11.898438 -40.078125 14.078125 -40.078125 L 30.96875 -40.078125 L 30.96875 -32.0625 L 15.578125 -32.0625 C 14.847656 -32.0625 14.175781 -31.890625 13.5625 -31.546875 C 12.957031 -31.203125 12.472656 -30.742188 12.109375 -30.171875 C 11.742188 -29.597656 11.5625 -28.929688 11.5625 -28.171875 C 11.5625 -27.441406 11.742188 -26.78125 12.109375 -26.1875 C 12.472656 -25.59375 12.957031 -25.132812 13.5625 -24.8125 C 14.175781 -24.488281 14.847656 -24.328125 15.578125 -24.328125 L 29.03125 -24.328125 L 29.03125 -16.3125 L 15.859375 -16.3125 C 15.054688 -16.3125 14.328125 -16.117188 13.671875 -15.734375 C 13.023438 -15.359375 12.507812 -14.863281 12.125 -14.25 C 11.75 -13.644531 11.5625 -12.941406 11.5625 -12.140625 C 11.5625 -11.367188 11.75 -10.671875 12.125 -10.046875 C 12.507812 -9.421875 13.023438 -8.9375 13.671875 -8.59375 C 14.328125 -8.25 15.054688 -8.078125 15.859375 -8.078125 L 30.96875 -8.078125 L 30.96875 0 Z M 14.203125 0 "/></g></g></g><g fill="#ffffff" fill-opacity="1"><g transform="translate(71.543652, 64.755469)"><g><path d="M 2.46875 0 L 12.9375 -17.234375 C 11.070312 -17.992188 9.46875 -19.015625 8.125 -20.296875 C 6.789062 -21.578125 5.75 -23.113281 5 -24.90625 C 4.257812 -26.695312 3.890625 -28.71875 3.890625 -30.96875 L 3.890625 -40.078125 L 13.515625 -40.078125 L 13.515625 -30.40625 C 13.515625 -29.40625 13.710938 -28.472656 14.109375 -27.609375 C 14.515625 -26.753906 15.085938 -26.050781 15.828125 -25.5 C 16.578125 -24.945312 17.445312 -24.597656 18.4375 -24.453125 L 27.703125 -40.078125 L 38.421875 -40.078125 L 27.9375 -23.1875 C 30.039062 -22.570312 31.875 -21.613281 33.4375 -20.3125 C 35 -19.019531 36.195312 -17.425781 37.03125 -15.53125 C 37.875 -13.644531 38.296875 -11.519531 38.296875 -9.15625 L 38.296875 0 L 28.6875 0 L 28.6875 -9.625 C 28.6875 -11.332031 28.148438 -12.785156 27.078125 -13.984375 C 26.003906 -15.191406 24.515625 -15.816406 22.609375 -15.859375 L 13.171875 0 Z M 2.46875 0 "/></g></g></g><g fill="#ffffff" fill-opacity="1"><g transform="translate(107.20609, 64.755469)"><g><path d="M 0 0 L 13 -35.4375 C 13.644531 -37.195312 14.710938 -38.523438 16.203125 -39.421875 C 17.691406 -40.316406 19.367188 -40.765625 21.234375 -40.765625 C 23.109375 -40.765625 24.789062 -40.332031 26.28125 -39.46875 C 27.769531 -38.613281 28.835938 -37.289062 29.484375 -35.5 L 42.53125 0 L 32.171875 0 L 29.65625 -7.734375 L 12.65625 -7.734375 L 10.015625 0 Z M 15.109375 -15.6875 L 27.1875 -15.6875 L 22.09375 -31.65625 C 22.019531 -31.882812 21.914062 -32.046875 21.78125 -32.140625 C 21.644531 -32.234375 21.484375 -32.28125 21.296875 -32.28125 C 21.109375 -32.28125 20.945312 -32.222656 20.8125 -32.109375 C 20.675781 -32.003906 20.585938 -31.851562 20.546875 -31.65625 Z M 15.109375 -15.6875 "/></g></g></g><g fill="#ffffff" fill-opacity="1"><g transform="translate(145.043813, 64.755469)"><g><path d="M 31.71875 0.6875 C 29.3125 0.6875 27.15625 0.160156 25.25 -0.890625 C 23.34375 -1.941406 21.832031 -3.398438 20.71875 -5.265625 C 19.613281 -7.140625 19.0625 -9.257812 19.0625 -11.625 L 19.0625 -29.140625 C 19.0625 -29.753906 18.90625 -30.304688 18.59375 -30.796875 C 18.289062 -31.296875 17.890625 -31.695312 17.390625 -32 C 16.898438 -32.300781 16.351562 -32.453125 15.75 -32.453125 C 15.132812 -32.453125 14.578125 -32.300781 14.078125 -32 C 13.585938 -31.695312 13.195312 -31.296875 12.90625 -30.796875 C 12.625 -30.304688 12.484375 -29.753906 12.484375 -29.140625 L 12.484375 0 L 3.09375 0 L 3.09375 -28.453125 C 3.09375 -30.859375 3.632812 -32.976562 4.71875 -34.8125 C 5.8125 -36.644531 7.320312 -38.09375 9.25 -39.15625 C 11.175781 -40.226562 13.34375 -40.765625 15.75 -40.765625 C 18.1875 -40.765625 20.359375 -40.226562 22.265625 -39.15625 C 24.171875 -38.09375 25.675781 -36.644531 26.78125 -34.8125 C 27.894531 -32.976562 28.453125 -30.859375 28.453125 -28.453125 L 28.453125 -10.9375 C 28.453125 -10.320312 28.601562 -9.753906 28.90625 -9.234375 C 29.21875 -8.722656 29.609375 -8.320312 30.078125 -8.03125 C 30.554688 -7.75 31.082031 -7.609375 31.65625 -7.609375 C 32.269531 -7.609375 32.832031 -7.75 33.34375 -8.03125 C 33.863281 -8.320312 34.273438 -8.722656 34.578125 -9.234375 C 34.878906 -9.753906 35.03125 -10.320312 35.03125 -10.9375 L 35.03125 -40.078125 L 44.375 -40.078125 L 44.375 -11.625 C 44.375 -9.257812 43.816406 -7.140625 42.703125 -5.265625 C 41.597656 -3.398438 40.09375 -1.941406 38.1875 -0.890625 C 36.28125 0.160156 34.125 0.6875 31.71875 0.6875 Z M 31.71875 0.6875 "/></g></g></g><g fill="#ffffff" fill-opacity="1"><g transform="translate(187.861804, 64.755469)"><g><path d="M 0 0 L 13 -35.4375 C 13.644531 -37.195312 14.710938 -38.523438 16.203125 -39.421875 C 17.691406 -40.316406 19.367188 -40.765625 21.234375 -40.765625 C 23.109375 -40.765625 24.789062 -40.332031 26.28125 -39.46875 C 27.769531 -38.613281 28.835938 -37.289062 29.484375 -35.5 L 42.53125 0 L 32.171875 0 L 29.65625 -7.734375 L 12.65625 -7.734375 L 10.015625 0 Z M 15.109375 -15.6875 L 27.1875 -15.6875 L 22.09375 -31.65625 C 22.019531 -31.882812 21.914062 -32.046875 21.78125 -32.140625 C 21.644531 -32.234375 21.484375 -32.28125 21.296875 -32.28125 C 21.109375 -32.28125 20.945312 -32.222656 20.8125 -32.109375 C 20.675781 -32.003906 20.585938 -31.851562 20.546875 -31.65625 Z M 15.109375 -15.6875 "/></g></g></g></g></g><g transform="matrix(1, 0, 0, 1, 204, 57)"><g clip-path="url(#21d490850d)"><g fill="#ffffff" fill-opacity="1"><g transform="translate(0.852875, 35.429132)"><g><path d="M 1.890625 0 L 1.890625 -21.640625 L 9.828125 -21.640625 C 12.117188 -21.640625 14.101562 -21.175781 15.78125 -20.25 C 17.46875 -19.320312 18.78125 -18.046875 19.71875 -16.421875 C 20.65625 -14.796875 21.125 -12.929688 21.125 -10.828125 C 21.125 -8.722656 20.65625 -6.851562 19.71875 -5.21875 C 18.78125 -3.59375 17.46875 -2.316406 15.78125 -1.390625 C 14.101562 -0.460938 12.117188 0 9.828125 0 Z M 7.078125 -4.328125 L 9.703125 -4.328125 C 10.898438 -4.328125 11.96875 -4.585938 12.90625 -5.109375 C 13.84375 -5.640625 14.578125 -6.390625 15.109375 -7.359375 C 15.648438 -8.328125 15.921875 -9.484375 15.921875 -10.828125 C 15.921875 -12.160156 15.648438 -13.3125 15.109375 -14.28125 C 14.578125 -15.25 13.84375 -15.992188 12.90625 -16.515625 C 11.96875 -17.046875 10.898438 -17.3125 9.703125 -17.3125 L 7.078125 -17.3125 Z M 7.078125 -4.328125 "/></g></g></g><g fill="#ffffff" fill-opacity="1"><g transform="translate(20.302887, 35.429132)"><g><path d="M 0 0 L 7.015625 -19.140625 C 7.367188 -20.085938 7.945312 -20.800781 8.75 -21.28125 C 9.550781 -21.769531 10.457031 -22.015625 11.46875 -22.015625 C 12.476562 -22.015625 13.382812 -21.78125 14.1875 -21.3125 C 15 -20.851562 15.578125 -20.140625 15.921875 -19.171875 L 22.96875 0 L 17.375 0 L 16.015625 -4.171875 L 6.828125 -4.171875 L 5.40625 0 Z M 8.15625 -8.46875 L 14.6875 -8.46875 L 11.9375 -17.09375 C 11.894531 -17.21875 11.835938 -17.304688 11.765625 -17.359375 C 11.691406 -17.410156 11.601562 -17.4375 11.5 -17.4375 C 11.394531 -17.4375 11.304688 -17.40625 11.234375 -17.34375 C 11.160156 -17.28125 11.113281 -17.195312 11.09375 -17.09375 Z M 8.15625 -8.46875 "/></g></g></g><g fill="#ffffff" fill-opacity="1"><g transform="translate(40.742432, 35.429132)"><g><path d="M 13.015625 0 C 11.703125 0 10.546875 -0.289062 9.546875 -0.875 C 8.546875 -1.46875 7.757812 -2.257812 7.1875 -3.25 C 6.625 -4.238281 6.34375 -5.34375 6.34375 -6.5625 L 6.34375 -17.3125 L 0.46875 -17.3125 L 0.46875 -21.640625 L 17.375 -21.640625 L 17.375 -17.3125 L 11.53125 -17.3125 L 11.53125 -6.09375 C 11.53125 -5.613281 11.691406 -5.195312 12.015625 -4.84375 C 12.347656 -4.5 12.765625 -4.328125 13.265625 -4.328125 L 14.96875 -4.328125 L 14.96875 0 Z M 13.015625 0 "/></g></g></g><g fill="#ffffff" fill-opacity="1"><g transform="translate(56.048759, 35.429132)"><g><path d="M 0 0 L 7.015625 -19.140625 C 7.367188 -20.085938 7.945312 -20.800781 8.75 -21.28125 C 9.550781 -21.769531 10.457031 -22.015625 11.46875 -22.015625 C 12.476562 -22.015625 13.382812 -21.78125 14.1875 -21.3125 C 15 -20.851562 15.578125 -20.140625 15.921875 -19.171875 L 22.96875 0 L 17.375 0 L 16.015625 -4.171875 L 6.828125 -4.171875 L 5.40625 0 Z M 8.15625 -8.46875 L 14.6875 -8.46875 L 11.9375 -17.09375 C 11.894531 -17.21875 11.835938 -17.304688 11.765625 -17.359375 C 11.691406 -17.410156 11.601562 -17.4375 11.5 -17.4375 C 11.394531 -17.4375 11.304688 -17.40625 11.234375 -17.34375 C 11.160156 -17.28125 11.113281 -17.195312 11.09375 -17.09375 Z M 8.15625 -8.46875 "/></g></g></g><g fill="#ffffff" fill-opacity="1"><g transform="translate(76.488304, 35.429132)"><g><path d="M 1.890625 0 L 1.890625 -21.640625 L 14.4375 -21.640625 C 15.507812 -21.640625 16.484375 -21.398438 17.359375 -20.921875 C 18.234375 -20.453125 18.929688 -19.796875 19.453125 -18.953125 C 19.984375 -18.109375 20.25 -17.109375 20.25 -15.953125 C 20.25 -15.273438 20.117188 -14.625 19.859375 -14 C 19.609375 -13.382812 19.25 -12.835938 18.78125 -12.359375 C 18.320312 -11.890625 17.789062 -11.507812 17.1875 -11.21875 C 17.894531 -10.9375 18.519531 -10.523438 19.0625 -9.984375 C 19.601562 -9.453125 20.035156 -8.832031 20.359375 -8.125 C 20.679688 -7.425781 20.84375 -6.675781 20.84375 -5.875 C 20.84375 -4.695312 20.566406 -3.664062 20.015625 -2.78125 C 19.472656 -1.894531 18.75 -1.207031 17.84375 -0.71875 C 16.9375 -0.238281 15.925781 0 14.8125 0 Z M 7.078125 -4.296875 L 13.453125 -4.296875 C 13.878906 -4.296875 14.265625 -4.398438 14.609375 -4.609375 C 14.953125 -4.816406 15.222656 -5.09375 15.421875 -5.4375 C 15.628906 -5.789062 15.734375 -6.175781 15.734375 -6.59375 C 15.734375 -7.019531 15.628906 -7.398438 15.421875 -7.734375 C 15.222656 -8.078125 14.953125 -8.351562 14.609375 -8.5625 C 14.265625 -8.769531 13.878906 -8.875 13.453125 -8.875 L 7.078125 -8.875 Z M 7.078125 -13.015625 L 12.921875 -13.015625 C 13.335938 -13.015625 13.703125 -13.113281 14.015625 -13.3125 C 14.335938 -13.507812 14.59375 -13.765625 14.78125 -14.078125 C 14.96875 -14.398438 15.0625 -14.757812 15.0625 -15.15625 C 15.0625 -15.5625 14.96875 -15.925781 14.78125 -16.25 C 14.59375 -16.570312 14.335938 -16.828125 14.015625 -17.015625 C 13.703125 -17.210938 13.335938 -17.3125 12.921875 -17.3125 L 7.078125 -17.3125 Z M 7.078125 -13.015625 "/></g></g></g><g fill="#ffffff" fill-opacity="1"><g transform="translate(95.907391, 35.429132)"><g><path d="M 0 0 L 7.015625 -19.140625 C 7.367188 -20.085938 7.945312 -20.800781 8.75 -21.28125 C 9.550781 -21.769531 10.457031 -22.015625 11.46875 -22.015625 C 12.476562 -22.015625 13.382812 -21.78125 14.1875 -21.3125 C 15 -20.851562 15.578125 -20.140625 15.921875 -19.171875 L 22.96875 0 L 17.375 0 L 16.015625 -4.171875 L 6.828125 -4.171875 L 5.40625 0 Z M 8.15625 -8.46875 L 14.6875 -8.46875 L 11.9375 -17.09375 C 11.894531 -17.21875 11.835938 -17.304688 11.765625 -17.359375 C 11.691406 -17.410156 11.601562 -17.4375 11.5 -17.4375 C 11.394531 -17.4375 11.304688 -17.40625 11.234375 -17.34375 C 11.160156 -17.28125 11.113281 -17.195312 11.09375 -17.09375 Z M 8.15625 -8.46875 "/></g></g></g><g fill="#ffffff" fill-opacity="1"><g transform="translate(116.346936, 35.429132)"><g><path d="M 2.015625 0 L 2.015625 -4.328125 L 11.25 -4.328125 C 11.664062 -4.328125 12.035156 -4.429688 12.359375 -4.640625 C 12.691406 -4.847656 12.957031 -5.113281 13.15625 -5.4375 C 13.351562 -5.769531 13.453125 -6.132812 13.453125 -6.53125 C 13.453125 -6.9375 13.351562 -7.300781 13.15625 -7.625 C 12.957031 -7.957031 12.691406 -8.226562 12.359375 -8.4375 C 12.035156 -8.644531 11.664062 -8.75 11.25 -8.75 L 7.921875 -8.75 C 6.660156 -8.75 5.515625 -8.992188 4.484375 -9.484375 C 3.453125 -9.984375 2.628906 -10.710938 2.015625 -11.671875 C 1.410156 -12.628906 1.109375 -13.78125 1.109375 -15.125 C 1.109375 -16.4375 1.394531 -17.578125 1.96875 -18.546875 C 2.550781 -19.515625 3.335938 -20.269531 4.328125 -20.8125 C 5.316406 -21.363281 6.410156 -21.640625 7.609375 -21.640625 L 17.15625 -21.640625 L 17.15625 -17.3125 L 8.1875 -17.3125 C 7.820312 -17.3125 7.484375 -17.21875 7.171875 -17.03125 C 6.859375 -16.851562 6.617188 -16.609375 6.453125 -16.296875 C 6.296875 -15.984375 6.21875 -15.644531 6.21875 -15.28125 C 6.21875 -14.90625 6.296875 -14.566406 6.453125 -14.265625 C 6.617188 -13.972656 6.859375 -13.734375 7.171875 -13.546875 C 7.484375 -13.359375 7.820312 -13.265625 8.1875 -13.265625 L 11.6875 -13.265625 C 13.070312 -13.265625 14.273438 -13 15.296875 -12.46875 C 16.316406 -11.945312 17.109375 -11.21875 17.671875 -10.28125 C 18.234375 -9.34375 18.515625 -8.242188 18.515625 -6.984375 C 18.515625 -5.503906 18.222656 -4.242188 17.640625 -3.203125 C 17.054688 -2.160156 16.269531 -1.363281 15.28125 -0.8125 C 14.289062 -0.269531 13.195312 0 12 0 Z M 2.015625 0 "/></g></g></g><g fill="#ffffff" fill-opacity="1"><g transform="translate(133.323106, 35.429132)"><g><path d="M 7.671875 0 C 6.453125 0 5.347656 -0.28125 4.359375 -0.84375 C 3.367188 -1.414062 2.578125 -2.179688 1.984375 -3.140625 C 1.398438 -4.097656 1.109375 -5.1875 1.109375 -6.40625 C 1.109375 -7.3125 1.304688 -8.160156 1.703125 -8.953125 C 2.109375 -9.742188 2.65625 -10.429688 3.34375 -11.015625 C 2.675781 -11.566406 2.148438 -12.222656 1.765625 -12.984375 C 1.390625 -13.742188 1.203125 -14.550781 1.203125 -15.40625 C 1.203125 -16.59375 1.488281 -17.65625 2.0625 -18.59375 C 2.644531 -19.53125 3.421875 -20.269531 4.390625 -20.8125 C 5.359375 -21.363281 6.429688 -21.640625 7.609375 -21.640625 L 16.734375 -21.640625 L 16.734375 -17.3125 L 8.40625 -17.3125 C 8.019531 -17.3125 7.660156 -17.21875 7.328125 -17.03125 C 6.992188 -16.851562 6.726562 -16.609375 6.53125 -16.296875 C 6.34375 -15.984375 6.25 -15.625 6.25 -15.21875 C 6.25 -14.820312 6.34375 -14.460938 6.53125 -14.140625 C 6.726562 -13.828125 6.992188 -13.582031 7.328125 -13.40625 C 7.660156 -13.226562 8.019531 -13.140625 8.40625 -13.140625 L 15.671875 -13.140625 L 15.671875 -8.8125 L 8.5625 -8.8125 C 8.132812 -8.8125 7.742188 -8.707031 7.390625 -8.5 C 7.035156 -8.289062 6.753906 -8.019531 6.546875 -7.6875 C 6.347656 -7.363281 6.25 -6.988281 6.25 -6.5625 C 6.25 -6.144531 6.347656 -5.765625 6.546875 -5.421875 C 6.753906 -5.085938 7.035156 -4.828125 7.390625 -4.640625 C 7.742188 -4.453125 8.132812 -4.359375 8.5625 -4.359375 L 16.734375 -4.359375 L 16.734375 0 Z M 7.671875 0 "/></g></g></g></g></g></svg>