<svg xmlns="http://www.w3.org/2000/svg" xmlns:xlink="http://www.w3.org/1999/xlink" width="512" zoomAndPan="magnify" viewBox="0 0 384 95.999999" height="128" preserveAspectRatio="xMidYMid meet" version="1.0"><defs><g/><clipPath id="ec9f4032e8"><path d="M 4 31 L 116 31 L 116 42.640625 L 4 42.640625 Z M 4 31 " clip-rule="nonzero"/></clipPath><clipPath id="d87cd2db20"><rect x="0" width="112" y="0" height="12"/></clipPath><clipPath id="f5e45dfae5"><path d="M 0.359375 0.640625 L 123.480469 0.640625 L 123.480469 27 L 0.359375 27 Z M 0.359375 0.640625 " clip-rule="nonzero"/></clipPath><clipPath id="0beec5cb95"><rect x="0" width="124" y="0" height="27"/></clipPath><clipPath id="0b04b1faaa"><rect x="0" width="124" y="0" height="43"/></clipPath><clipPath id="437b3dd3d8"><path d="M 0.410156 12 L 66 12 L 66 77.484375 L 0.410156 77.484375 Z M 0.410156 12 " clip-rule="nonzero"/></clipPath><clipPath id="95f311e1f6"><path d="M 12 0.601562 L 77.28125 0.601562 L 77.28125 66 L 12 66 Z M 12 0.601562 " clip-rule="nonzero"/></clipPath><clipPath id="cc307f1d13"><path d="M 21.109375 42.425781 L 35.386719 42.425781 L 35.386719 56.699219 L 21.109375 56.699219 Z M 21.109375 42.425781 " clip-rule="nonzero"/></clipPath><clipPath id="1646875306"><path d="M 0.109375 0.425781 L 14.386719 0.425781 L 14.386719 14.699219 L 0.109375 14.699219 Z M 0.109375 0.425781 " clip-rule="nonzero"/></clipPath><clipPath id="05466518aa"><rect x="0" width="15" y="0" height="15"/></clipPath><clipPath id="f59f0538df"><rect x="0" width="78" y="0" height="78"/></clipPath></defs><g transform="matrix(1, 0, 0, 1, 171, 26)"><g clip-path="url(#0b04b1faaa)"><g clip-path="url(#ec9f4032e8)"><g transform="matrix(1, 0, 0, 1, 4, 31)"><g clip-path="url(#d87cd2db20)"><g fill="#222222" fill-opacity="1"><g transform="translate(1.494753, 9.004816)"><g><path d="M 1.4375 -5.4375 L 1.4375 -2.953125 L 4.53125 -2.953125 L 4.53125 -2.5625 L 1.4375 -2.5625 L 1.4375 0 L 1.015625 0 L 1.015625 -5.8125 L 4.90625 -5.8125 L 4.90625 -5.4375 Z M 1.4375 -5.4375 "/></g></g></g><g fill="#222222" fill-opacity="1"><g transform="translate(8.312529, 9.004816)"><g><path d="M 5.046875 0 L 3.671875 -1.9375 C 3.460938 -1.914062 3.269531 -1.90625 3.09375 -1.90625 L 1.4375 -1.90625 L 1.4375 0 L 1.015625 0 L 1.015625 -5.8125 L 3.09375 -5.8125 C 3.832031 -5.8125 4.40625 -5.640625 4.8125 -5.296875 C 5.226562 -4.953125 5.4375 -4.472656 5.4375 -3.859375 C 5.4375 -3.398438 5.316406 -3.015625 5.078125 -2.703125 C 4.847656 -2.390625 4.515625 -2.164062 4.078125 -2.03125 L 5.53125 0 Z M 3.09375 -2.28125 C 3.71875 -2.28125 4.191406 -2.414062 4.515625 -2.6875 C 4.847656 -2.957031 5.015625 -3.347656 5.015625 -3.859375 C 5.015625 -4.359375 4.847656 -4.742188 4.515625 -5.015625 C 4.191406 -5.296875 3.71875 -5.4375 3.09375 -5.4375 L 1.4375 -5.4375 L 1.4375 -2.28125 Z M 3.09375 -2.28125 "/></g></g></g><g fill="#222222" fill-opacity="1"><g transform="translate(15.869327, 9.004816)"><g><path d="M 3.484375 0.046875 C 2.910156 0.046875 2.394531 -0.0820312 1.9375 -0.34375 C 1.476562 -0.601562 1.113281 -0.957031 0.84375 -1.40625 C 0.582031 -1.851562 0.453125 -2.351562 0.453125 -2.90625 C 0.453125 -3.457031 0.582031 -3.957031 0.84375 -4.40625 C 1.113281 -4.863281 1.476562 -5.21875 1.9375 -5.46875 C 2.394531 -5.726562 2.910156 -5.859375 3.484375 -5.859375 C 4.054688 -5.859375 4.570312 -5.726562 5.03125 -5.46875 C 5.488281 -5.21875 5.847656 -4.867188 6.109375 -4.421875 C 6.378906 -3.972656 6.515625 -3.46875 6.515625 -2.90625 C 6.515625 -2.34375 6.378906 -1.835938 6.109375 -1.390625 C 5.847656 -0.941406 5.488281 -0.585938 5.03125 -0.328125 C 4.570312 -0.078125 4.054688 0.046875 3.484375 0.046875 Z M 3.484375 -0.34375 C 3.972656 -0.34375 4.410156 -0.453125 4.796875 -0.671875 C 5.191406 -0.898438 5.503906 -1.207031 5.734375 -1.59375 C 5.960938 -1.988281 6.078125 -2.425781 6.078125 -2.90625 C 6.078125 -3.382812 5.960938 -3.816406 5.734375 -4.203125 C 5.503906 -4.597656 5.191406 -4.90625 4.796875 -5.125 C 4.410156 -5.351562 3.972656 -5.46875 3.484375 -5.46875 C 2.992188 -5.46875 2.550781 -5.351562 2.15625 -5.125 C 1.757812 -4.90625 1.445312 -4.597656 1.21875 -4.203125 C 0.988281 -3.816406 0.875 -3.382812 0.875 -2.90625 C 0.875 -2.425781 0.988281 -1.988281 1.21875 -1.59375 C 1.445312 -1.207031 1.757812 -0.898438 2.15625 -0.671875 C 2.550781 -0.453125 2.992188 -0.34375 3.484375 -0.34375 Z M 3.484375 -0.34375 "/></g></g></g><g fill="#222222" fill-opacity="1"><g transform="translate(24.405957, 9.004816)"><g><path d="M 6.515625 0 L 6.515625 -4.984375 L 4.078125 -0.765625 L 3.859375 -0.765625 L 1.4375 -4.96875 L 1.4375 0 L 1.015625 0 L 1.015625 -5.8125 L 1.375 -5.8125 L 3.96875 -1.328125 L 6.578125 -5.8125 L 6.921875 -5.8125 L 6.9375 0 Z M 6.515625 0 "/></g></g></g><g fill="#222222" fill-opacity="1"><g transform="translate(33.922419, 9.004816)"><g/></g></g><g fill="#222222" fill-opacity="1"><g transform="translate(37.634628, 9.004816)"><g><path d="M 5.75 -5.8125 L 5.75 0 L 5.40625 0 L 1.4375 -5.046875 L 1.4375 0 L 1.015625 0 L 1.015625 -5.8125 L 1.375 -5.8125 L 5.328125 -0.765625 L 5.328125 -5.8125 Z M 5.75 -5.8125 "/></g></g></g><g fill="#222222" fill-opacity="1"><g transform="translate(45.971964, 9.004816)"><g><path d="M 5.03125 -0.375 L 5.03125 0 L 1.015625 0 L 1.015625 -5.8125 L 4.90625 -5.8125 L 4.90625 -5.4375 L 1.4375 -5.4375 L 1.4375 -3.140625 L 4.53125 -3.140625 L 4.53125 -2.765625 L 1.4375 -2.765625 L 1.4375 -0.375 Z M 5.03125 -0.375 "/></g></g></g><g fill="#222222" fill-opacity="1"><g transform="translate(53.105281, 9.004816)"><g><path d="M 4.65625 0 L 2.65625 -2.6875 L 0.671875 0 L 0.171875 0 L 2.40625 -3 L 0.328125 -5.8125 L 0.828125 -5.8125 L 2.671875 -3.3125 L 4.53125 -5.8125 L 5 -5.8125 L 2.921875 -3.015625 L 5.15625 0 Z M 4.65625 0 "/></g></g></g><g fill="#222222" fill-opacity="1"><g transform="translate(60.014399, 9.004816)"><g/></g></g><g fill="#222222" fill-opacity="1"><g transform="translate(63.726608, 9.004816)"><g><path d="M 2.125 -5.4375 L 0.03125 -5.4375 L 0.03125 -5.8125 L 4.640625 -5.8125 L 4.640625 -5.4375 L 2.546875 -5.4375 L 2.546875 0 L 2.125 0 Z M 2.125 -5.4375 "/></g></g></g><g fill="#222222" fill-opacity="1"><g transform="translate(69.979727, 9.004816)"><g><path d="M 3.484375 0.046875 C 2.910156 0.046875 2.394531 -0.0820312 1.9375 -0.34375 C 1.476562 -0.601562 1.113281 -0.957031 0.84375 -1.40625 C 0.582031 -1.851562 0.453125 -2.351562 0.453125 -2.90625 C 0.453125 -3.457031 0.582031 -3.957031 0.84375 -4.40625 C 1.113281 -4.863281 1.476562 -5.21875 1.9375 -5.46875 C 2.394531 -5.726562 2.910156 -5.859375 3.484375 -5.859375 C 4.054688 -5.859375 4.570312 -5.726562 5.03125 -5.46875 C 5.488281 -5.21875 5.847656 -4.867188 6.109375 -4.421875 C 6.378906 -3.972656 6.515625 -3.46875 6.515625 -2.90625 C 6.515625 -2.34375 6.378906 -1.835938 6.109375 -1.390625 C 5.847656 -0.941406 5.488281 -0.585938 5.03125 -0.328125 C 4.570312 -0.078125 4.054688 0.046875 3.484375 0.046875 Z M 3.484375 -0.34375 C 3.972656 -0.34375 4.410156 -0.453125 4.796875 -0.671875 C 5.191406 -0.898438 5.503906 -1.207031 5.734375 -1.59375 C 5.960938 -1.988281 6.078125 -2.425781 6.078125 -2.90625 C 6.078125 -3.382812 5.960938 -3.816406 5.734375 -4.203125 C 5.503906 -4.597656 5.191406 -4.90625 4.796875 -5.125 C 4.410156 -5.351562 3.972656 -5.46875 3.484375 -5.46875 C 2.992188 -5.46875 2.550781 -5.351562 2.15625 -5.125 C 1.757812 -4.90625 1.445312 -4.597656 1.21875 -4.203125 C 0.988281 -3.816406 0.875 -3.382812 0.875 -2.90625 C 0.875 -2.425781 0.988281 -1.988281 1.21875 -1.59375 C 1.445312 -1.207031 1.757812 -0.898438 2.15625 -0.671875 C 2.550781 -0.453125 2.992188 -0.34375 3.484375 -0.34375 Z M 3.484375 -0.34375 "/></g></g></g><g fill="#222222" fill-opacity="1"><g transform="translate(78.516357, 9.004816)"><g/></g></g><g fill="#222222" fill-opacity="1"><g transform="translate(82.228567, 9.004816)"><g><path d="M 5.75 -5.8125 L 5.75 0 L 5.40625 0 L 1.4375 -5.046875 L 1.4375 0 L 1.015625 0 L 1.015625 -5.8125 L 1.375 -5.8125 L 5.328125 -0.765625 L 5.328125 -5.8125 Z M 5.75 -5.8125 "/></g></g></g><g fill="#222222" fill-opacity="1"><g transform="translate(90.565903, 9.004816)"><g><path d="M 5.03125 -0.375 L 5.03125 0 L 1.015625 0 L 1.015625 -5.8125 L 4.90625 -5.8125 L 4.90625 -5.4375 L 1.4375 -5.4375 L 1.4375 -3.140625 L 4.53125 -3.140625 L 4.53125 -2.765625 L 1.4375 -2.765625 L 1.4375 -0.375 Z M 5.03125 -0.375 "/></g></g></g><g fill="#222222" fill-opacity="1"><g transform="translate(97.699219, 9.004816)"><g><path d="M 4.65625 0 L 2.65625 -2.6875 L 0.671875 0 L 0.171875 0 L 2.40625 -3 L 0.328125 -5.8125 L 0.828125 -5.8125 L 2.671875 -3.3125 L 4.53125 -5.8125 L 5 -5.8125 L 2.921875 -3.015625 L 5.15625 0 Z M 4.65625 0 "/></g></g></g><g fill="#222222" fill-opacity="1"><g transform="translate(104.608337, 9.004816)"><g><path d="M 2.125 -5.4375 L 0.03125 -5.4375 L 0.03125 -5.8125 L 4.640625 -5.8125 L 4.640625 -5.4375 L 2.546875 -5.4375 L 2.546875 0 L 2.125 0 Z M 2.125 -5.4375 "/></g></g></g></g></g></g><g clip-path="url(#f5e45dfae5)"><g transform="matrix(1, 0, 0, 1, 0.000000000000056843, -0.000000000000003553)"><g clip-path="url(#0beec5cb95)"><g fill="#222222" fill-opacity="1"><g transform="translate(0.428748, 20.855345)"><g><path d="M 15.046875 -14.53125 L 15.046875 0 L 12.28125 0 L 5.046875 -8.8125 L 5.046875 0 L 1.71875 0 L 1.71875 -14.53125 L 4.5 -14.53125 L 11.71875 -5.703125 L 11.71875 -14.53125 Z M 15.046875 -14.53125 "/></g></g></g><g fill="#222222" fill-opacity="1"><g transform="translate(21.967895, 20.855345)"><g><path d="M 12.96875 -2.703125 L 12.96875 0 L 1.71875 0 L 1.71875 -14.53125 L 12.703125 -14.53125 L 12.703125 -11.828125 L 5.0625 -11.828125 L 5.0625 -8.671875 L 11.8125 -8.671875 L 11.8125 -6.0625 L 5.0625 -6.0625 L 5.0625 -2.703125 Z M 12.96875 -2.703125 "/></g></g></g><g fill="#222222" fill-opacity="1"><g transform="translate(40.664209, 20.855345)"><g><path d="M 10.875 0 L 7.359375 -5.046875 L 3.921875 0 L 0.0625 0 L 5.4375 -7.390625 L 0.328125 -14.53125 L 4.15625 -14.53125 L 7.484375 -9.8125 L 10.765625 -14.53125 L 14.40625 -14.53125 L 9.34375 -7.515625 L 14.75 0 Z M 10.875 0 "/></g></g></g><g fill="#222222" fill-opacity="1"><g transform="translate(60.252798, 20.855345)"><g><path d="M 11.28125 -3.109375 L 4.546875 -3.109375 L 3.25 0 L -0.1875 0 L 6.28125 -14.53125 L 9.609375 -14.53125 L 16.109375 0 L 12.578125 0 Z M 10.234375 -5.671875 L 7.921875 -11.21875 L 5.625 -5.671875 Z M 10.234375 -5.671875 "/></g></g></g><g fill="#222222" fill-opacity="1"><g transform="translate(80.920416, 20.855345)"><g><path d="M 15.046875 -14.53125 L 15.046875 0 L 12.28125 0 L 5.046875 -8.8125 L 5.046875 0 L 1.71875 0 L 1.71875 -14.53125 L 4.5 -14.53125 L 11.71875 -5.703125 L 11.71875 -14.53125 Z M 15.046875 -14.53125 "/></g></g></g><g fill="#222222" fill-opacity="1"><g transform="translate(102.459562, 20.855345)"><g><path d="M 11.28125 -3.109375 L 4.546875 -3.109375 L 3.25 0 L -0.1875 0 L 6.28125 -14.53125 L 9.609375 -14.53125 L 16.109375 0 L 12.578125 0 Z M 10.234375 -5.671875 L 7.921875 -11.21875 L 5.625 -5.671875 Z M 10.234375 -5.671875 "/></g></g></g></g></g></g></g></g><g transform="matrix(1, 0, 0, 1, 60, 9)"><g clip-path="url(#f59f0538df)"><g clip-path="url(#437b3dd3d8)"><path fill="#222222" d="M 65.152344 77.636719 L 0.410156 77.636719 L 0.410156 12.894531 L 65.152344 12.894531 Z M 1.445312 76.605469 L 64.121094 76.605469 L 64.121094 13.929688 L 1.445312 13.929688 Z M 1.445312 76.605469 " fill-opacity="1" fill-rule="nonzero"/></g><path fill="#222222" d="M 71.007812 71.09375 L 6.265625 71.09375 L 6.265625 6.351562 L 71.007812 6.351562 Z M 7.296875 70.0625 L 69.972656 70.0625 L 69.972656 7.386719 L 7.296875 7.386719 Z M 7.296875 70.0625 " fill-opacity="1" fill-rule="nonzero"/><g clip-path="url(#95f311e1f6)"><path fill="#222222" d="M 77.207031 65.101562 L 12.464844 65.101562 L 12.464844 0.359375 L 77.207031 0.359375 Z M 13.496094 64.070312 L 76.171875 64.070312 L 76.171875 1.394531 L 13.496094 1.394531 Z M 13.496094 64.070312 " fill-opacity="1" fill-rule="nonzero"/></g><g clip-path="url(#cc307f1d13)"><g transform="matrix(1, 0, 0, 1, 21, 42)"><g clip-path="url(#05466518aa)"><g clip-path="url(#1646875306)"><path fill="#222222" d="M 0.109375 0.425781 L 14.386719 0.425781 L 14.386719 14.699219 L 0.109375 14.699219 Z M 0.109375 0.425781 " fill-opacity="1" fill-rule="nonzero"/></g></g></g></g></g></g></svg>