<svg xmlns="http://www.w3.org/2000/svg" xmlns:xlink="http://www.w3.org/1999/xlink" width="180" zoomAndPan="magnify" viewBox="0 0 135 135.000003" height="180" preserveAspectRatio="xMidYMid meet" version="1.0"><defs><clipPath id="8763d62c3c"><path d="M 0.496094 0 L 134.503906 0 L 134.503906 134.007812 L 0.496094 134.007812 Z M 0.496094 0 " clip-rule="nonzero"/></clipPath><clipPath id="fd7dd05873"><path d="M 0.5 15 L 77 15 L 77 90.886719 L 0.5 90.886719 Z M 0.5 15 " clip-rule="nonzero"/></clipPath><clipPath id="c395ca65c8"><path d="M 14 0.769531 L 90.476562 0.769531 L 90.476562 77 L 14 77 Z M 14 0.769531 " clip-rule="nonzero"/></clipPath><clipPath id="d8720586de"><path d="M 25.347656 49.34375 L 41.925781 49.34375 L 41.925781 65.921875 L 25.347656 65.921875 Z M 25.347656 49.34375 " clip-rule="nonzero"/></clipPath><clipPath id="9520ae5735"><path d="M 0.347656 0.34375 L 16.925781 0.34375 L 16.925781 16.921875 L 0.347656 16.921875 Z M 0.347656 0.34375 " clip-rule="nonzero"/></clipPath><clipPath id="a8a46b00de"><rect x="0" width="17" y="0" height="17"/></clipPath><clipPath id="d81358f43c"><rect x="0" width="91" y="0" height="92"/></clipPath></defs><g clip-path="url(#8763d62c3c)"><path fill="#ffffff" d="M 0.496094 0 L 134.503906 0 L 134.503906 134.007812 L 0.496094 134.007812 Z M 0.496094 0 " fill-opacity="1" fill-rule="nonzero"/><path fill="#ffffff" d="M 0.496094 0 L 134.503906 0 L 134.503906 134.007812 L 0.496094 134.007812 Z M 0.496094 0 " fill-opacity="1" fill-rule="nonzero"/></g><g transform="matrix(1, 0, 0, 1, 22, 21)"><g clip-path="url(#d81358f43c)"><g clip-path="url(#fd7dd05873)"><path fill="#222222" d="M 76.34375 91.191406 L 0.359375 91.191406 L 0.359375 15.207031 L 76.34375 15.207031 Z M 1.570312 89.976562 L 75.128906 89.976562 L 75.128906 16.417969 L 1.570312 16.417969 Z M 1.570312 89.976562 " fill-opacity="1" fill-rule="nonzero"/></g><path fill="#222222" d="M 83.214844 83.511719 L 7.230469 83.511719 L 7.230469 7.527344 L 83.214844 7.527344 Z M 8.441406 82.296875 L 82 82.296875 L 82 8.738281 L 8.441406 8.738281 Z M 8.441406 82.296875 " fill-opacity="1" fill-rule="nonzero"/><g clip-path="url(#c395ca65c8)"><path fill="#222222" d="M 90.488281 76.480469 L 14.503906 76.480469 L 14.503906 0.496094 L 90.488281 0.496094 Z M 15.71875 75.265625 L 89.277344 75.265625 L 89.277344 1.707031 L 15.71875 1.707031 Z M 15.71875 75.265625 " fill-opacity="1" fill-rule="nonzero"/></g><g clip-path="url(#d8720586de)"><g transform="matrix(1, 0, 0, 1, 25, 49)"><g clip-path="url(#a8a46b00de)"><g clip-path="url(#9520ae5735)"><path fill="#222222" d="M 0.347656 0.34375 L 16.925781 0.34375 L 16.925781 16.921875 L 0.347656 16.921875 Z M 0.347656 0.34375 " fill-opacity="1" fill-rule="nonzero"/></g></g></g></g></g></g></svg>